<svg width="42" height="52" viewBox="0 0 42 52" fill="none" xmlns="http://www.w3.org/2000/svg">
<path d="M20.8968 51.2836C14.4473 51.2836 0.137695 36.8699 0.137695 19.7564C0.137695 8.79055 9.43185 -0.098938 20.8968 -0.098938C32.3618 -0.098938 41.656 8.79055 41.656 19.7564C41.656 36.8699 27.3464 51.2836 20.8968 51.2836Z" fill="url(#paint0_linear_158_104)"/>
<path d="M20.8965 26.743C24.9308 26.743 28.2012 23.615 28.2012 19.7564C28.2012 15.8977 24.9308 12.7697 20.8965 12.7697C16.8622 12.7697 13.5918 15.8977 13.5918 19.7564C13.5918 23.615 16.8622 26.743 20.8965 26.743Z" fill="white"/>
<path d="M13.2381 34.134C15.2497 34.134 16.8805 32.5742 16.8805 30.6502C16.8805 28.7261 15.2497 27.1664 13.2381 27.1664C11.2265 27.1664 9.5957 28.7261 9.5957 30.6502C9.5957 32.5742 11.2265 34.134 13.2381 34.134Z" fill="white"/>
<path d="M16.8802 30.6502C16.8802 31.7969 15.9083 32.7265 14.7094 32.7265C13.5105 32.7265 12.5386 31.7969 12.5386 30.6502C12.5386 29.5034 13.5105 28.5739 14.7094 28.5739C15.9083 28.5737 16.8802 29.5033 16.8802 30.6502Z" fill="#3B3B44"/>
<path d="M28.556 34.134C30.5676 34.134 32.1984 32.5742 32.1984 30.6502C32.1984 28.7261 30.5676 27.1664 28.556 27.1664C26.5443 27.1664 24.9136 28.7261 24.9136 30.6502C24.9136 32.5742 26.5443 34.134 28.556 34.134Z" fill="white"/>
<path d="M32.1908 30.6502C32.1908 31.7969 31.2189 32.7265 30.02 32.7265C28.821 32.7265 27.8491 31.7969 27.8491 30.6502C27.8491 29.5034 28.821 28.5739 30.02 28.5739C31.2189 28.5737 32.1908 29.5033 32.1908 30.6502Z" fill="#3B3B44"/>
<path d="M20.8968 35.3321C21.7969 35.3321 22.5265 34.4183 22.5265 33.2911C22.5265 32.1639 21.7969 31.2501 20.8968 31.2501C19.9967 31.2501 19.2671 32.1639 19.2671 33.2911C19.2671 34.4183 19.9967 35.3321 20.8968 35.3321Z" fill="white"/>
<path d="M24.5667 47.0234C24.1936 47.0234 23.8249 46.8615 23.5833 46.5544C23.1749 46.0355 23.2834 45.2979 23.8263 44.9073C24.7596 44.2353 25.7248 43.4042 26.6955 42.4368C27.1657 41.9681 27.9444 41.9527 28.4343 42.4026C28.9244 42.8524 28.9404 43.597 28.4701 44.0657C27.4085 45.1237 26.3438 46.0392 25.3055 46.7868C25.0839 46.9462 24.8241 47.0234 24.5667 47.0234Z" fill="#E3FCFF"/>
<path d="M30.7517 40.7742C30.5027 40.7742 30.2513 40.7021 30.0338 40.552C29.4828 40.1721 29.358 39.437 29.7551 38.9101C29.9076 38.7076 30.0637 38.4957 30.2189 38.2801C30.604 37.7449 31.3695 37.6098 31.9291 37.9782C32.4886 38.3465 32.63 39.0788 32.2448 39.614C32.0797 39.8435 31.9133 40.0695 31.7504 40.2856C31.5101 40.6045 31.1336 40.7742 30.7517 40.7742Z" fill="#E3FCFF"/>
<defs>
<linearGradient id="paint0_linear_158_104" x1="20.8968" y1="51.6191" x2="20.8968" y2="-10.1513" gradientUnits="userSpaceOnUse">
<stop stop-color="#FF455E"/>
<stop offset="1" stop-color="#FF919F"/>
</linearGradient>
</defs>
</svg>
