<svg width="62" height="44" viewBox="0 0 62 44" fill="none" xmlns="http://www.w3.org/2000/svg">
<path d="M61.957 7.51925C51.243 4.92155 42.3499 5.17682 31 5.17682C19.6502 5.17682 10.757 4.92167 0.0429883 7.51937C0.0150156 7.78142 0 8.04734 0 8.31678V35.6832C0 39.7967 3.33468 43.1314 7.44811 43.1314H54.5518C58.6652 43.1314 61.9999 39.7967 61.9999 35.6832V8.31678C62 8.04734 61.985 7.78142 61.957 7.51925Z" fill="url(#paint0_linear_158_126)"/>
<path d="M35.1203 28.577C34.7571 27.6299 33.7833 27.0539 32.7816 27.2132C29.8754 27.6751 26.828 27 24.3353 25.1869L21.5137 23.1349L18.3203 26.1575L21.6595 28.5861C24.3459 30.5399 27.5686 31.654 30.8903 31.6766C31.7534 31.6825 32.6067 31.6185 33.4444 31.4866C34.8004 31.2734 35.6115 29.8587 35.1203 28.577Z" fill="#04A5DE"/>
<path d="M61.957 7.51926C50.471 8.0419 31 14.1565 31 14.1565L59.5644 41.1922C61.0608 39.8299 62 37.8662 62 35.6832V8.31678C62 8.04735 61.985 7.78142 61.957 7.51926Z" fill="url(#paint1_linear_158_126)"/>
<path d="M0.0429883 7.51926C11.5291 8.0419 31 14.1565 31 14.1565L2.43556 41.1922C0.939203 39.8297 0 37.8662 0 35.6832V8.31678C0 8.04735 0.0150156 7.78142 0.0429883 7.51926Z" fill="url(#paint2_linear_158_126)"/>
<path d="M10.9306 30.1942C11.753 31.0523 13.1137 31.0854 13.9768 30.2685L21.5139 23.1348L0.0433516 7.5195C0.0152578 7.78155 0 8.04747 0 8.31678V12.833L14.7645 23.5711L11.0055 27.1289C10.1347 27.9531 10.1012 29.3285 10.9306 30.1942Z" fill="#04A5DE"/>
<path d="M54.5518 0.868668H7.44797C3.60397 0.868668 0.441004 3.78097 0.0429688 7.51938L24.3355 25.1871C28.3087 28.0767 33.6913 28.0767 37.6645 25.1871L61.957 7.51938C61.5587 3.78085 58.3958 0.868668 54.5518 0.868668Z" fill="url(#paint3_linear_158_126)"/>
<path d="M20.146 16.3274C21.1648 16.3274 21.9908 15.6637 21.9908 14.8449C21.9908 14.0262 21.1648 13.3625 20.146 13.3625C19.1272 13.3625 18.3013 14.0262 18.3013 14.8449C18.3013 15.6637 19.1272 16.3274 20.146 16.3274Z" fill="#EAADCD"/>
<path d="M41.8545 16.3274C42.8733 16.3274 43.6993 15.6637 43.6993 14.8449C43.6993 14.0262 42.8733 13.3625 41.8545 13.3625C40.8357 13.3625 40.0098 14.0262 40.0098 14.8449C40.0098 15.6637 40.8357 16.3274 41.8545 16.3274Z" fill="#EAADCD"/>
<path d="M23.3079 14.8449C25.3282 14.8449 26.9659 13.2072 26.9659 11.1869C26.9659 9.16669 25.3282 7.52895 23.3079 7.52895C21.2876 7.52895 19.6499 9.16669 19.6499 11.1869C19.6499 13.2072 21.2876 14.8449 23.3079 14.8449Z" fill="white"/>
<path d="M38.6917 14.8449C40.7119 14.8449 42.3497 13.2072 42.3497 11.1869C42.3497 9.16669 40.7119 7.52895 38.6917 7.52895C36.6714 7.52895 35.0337 9.16669 35.0337 11.1869C35.0337 13.2072 36.6714 14.8449 38.6917 14.8449Z" fill="white"/>
<path d="M23.3081 13.3671C24.5122 13.3671 25.4883 12.391 25.4883 11.187C25.4883 9.98288 24.5122 9.00678 23.3081 9.00678C22.104 9.00678 21.1279 9.98288 21.1279 11.187C21.1279 12.391 22.104 13.3671 23.3081 13.3671Z" fill="#3B3B44"/>
<path d="M38.6919 13.3671C39.896 13.3671 40.8721 12.391 40.8721 11.187C40.8721 9.98288 39.896 9.00678 38.6919 9.00678C37.4878 9.00678 36.5117 9.98288 36.5117 11.187C36.5117 12.391 37.4878 13.3671 38.6919 13.3671Z" fill="#3B3B44"/>
<path d="M31.0001 14.9613C30.3519 14.9613 29.7039 14.7162 29.1752 14.2259C28.9252 13.994 28.9103 13.6034 29.1423 13.3532C29.3742 13.1031 29.765 13.0882 30.015 13.3203C30.5952 13.8582 31.4053 13.8582 31.9854 13.3203C32.2354 13.0884 32.6262 13.1031 32.8582 13.3532C33.0899 13.6033 33.0753 13.9939 32.8252 14.2259C32.2963 14.7161 31.6483 14.9613 31.0001 14.9613Z" fill="#3B3B44"/>
<path d="M47.6998 5.80903H46.3307C45.6486 5.80903 45.0957 5.25611 45.0957 4.57399C45.0957 3.89187 45.6486 3.33896 46.3307 3.33896H47.6998C48.3819 3.33896 48.9349 3.89187 48.9349 4.57399C48.9349 5.25611 48.3819 5.80903 47.6998 5.80903Z" fill="#DFF7FA"/>
<path d="M57.3099 7.01466C56.9767 7.01466 56.6445 6.88061 56.401 6.61614C55.9287 6.10319 55.2548 5.80893 54.5521 5.80893H52.7468C52.0646 5.80893 51.5117 5.25602 51.5117 4.57389C51.5117 3.89177 52.0646 3.33886 52.7468 3.33886H54.5521C55.9434 3.33886 57.2798 3.9235 58.2183 4.94323C58.6803 5.44504 58.648 6.22634 58.1461 6.68831C57.9087 6.90688 57.6089 7.01466 57.3099 7.01466Z" fill="#DFF7FA"/>
<defs>
<linearGradient id="paint0_linear_158_126" x1="31.0024" y1="13.8784" x2="31.0024" y2="39.4118" gradientUnits="userSpaceOnUse">
<stop stop-color="#53AAE6"/>
<stop offset="1" stop-color="#A4D2F0"/>
</linearGradient>
<linearGradient id="paint1_linear_158_126" x1="45.9472" y1="24.3534" x2="68.2742" y2="24.3534" gradientUnits="userSpaceOnUse">
<stop stop-color="#53AAE6"/>
<stop offset="1" stop-color="#A4D2F0"/>
</linearGradient>
<linearGradient id="paint2_linear_158_126" x1="16.0499" y1="24.3534" x2="-6.27717" y2="24.3534" gradientUnits="userSpaceOnUse">
<stop stop-color="#53AAE6"/>
<stop offset="1" stop-color="#A4D2F0"/>
</linearGradient>
<linearGradient id="paint3_linear_158_126" x1="31.0024" y1="-12.4206" x2="31.0024" y2="19.0795" gradientUnits="userSpaceOnUse">
<stop stop-color="#74D2E8"/>
<stop offset="1" stop-color="#BAEAF5"/>
</linearGradient>
</defs>
</svg>
